<?xml version="1.0" encoding="utf-8"?>
<!-- Generator: Adobe Illustrator 16.0.0, SVG Export Plug-In . SVG Version: 6.00 Build 0)  -->
<!DOCTYPE svg PUBLIC "-//W3C//DTD SVG 1.1//EN" "http://www.w3.org/Graphics/SVG/1.1/DTD/svg11.dtd">
<svg version="1.1" id="Layer_1" xmlns="http://www.w3.org/2000/svg" xmlns:xlink="http://www.w3.org/1999/xlink" x="0px" y="0px"
	 width="100px" height="100px" viewBox="0 0 100 100" enable-background="new 0 0 100 100" xml:space="preserve">
<circle fill="#88ADDB" cx="50.885" cy="50.5" r="45"/>
<polygon fill="#E0E0DF" points="26.25,64 46.917,64.5 46.833,66.333 54.417,67 54.833,64.583 75.333,64.083 75.333,28.083 
	72.833,26 28.25,26.333 26.667,27.667 "/>
<polygon fill="#5FB04E" points="29.75,29.917 29.917,60.25 71.917,60.583 71.5,29.917 "/>
<path fill="#010101" d="M72.902,61.344H28.868V28.658h44.034V61.344L72.902,61.344z M30.684,59.527h40.404V30.474H30.684V59.527z"/>
<polygon fill="#E0E0E0" points="22.667,64.167 22.667,68.833 24.417,69.833 78.167,70.083 79.25,67.75 78.833,64.167 54.417,64.167 
	54.417,67 46.833,66.333 46.417,64.5 "/>
<path fill="#010101" d="M76.282,63.159V28.46c0-1.788-1.689-3.24-3.782-3.275v-0.007H29.16c-2.094,0-3.797,1.731-3.797,3.858v34.123
	H21.58v4.768c0,1.501,1.222,2.724,2.725,2.724h53.163c1.503,0,2.724-1.223,2.724-2.724v-4.768H76.282z M27.178,29.037
	c0-1.127,0.889-2.043,1.981-2.043h43.263c1.107,0,2.043,0.671,2.043,1.466v34.7H53.584v2.497h-5.675V63.16h-20.73L27.178,29.037
	L27.178,29.037z M78.375,67.927c0,0.501-0.406,0.908-0.908,0.908H24.303c-0.501,0-0.909-0.407-0.909-0.908v-2.95h22.699v2.496H55.4
	v-2.496h22.975V67.927z"/>
<g>
	<polygon fill="#FFFFFF" points="66.58,56.134 64.223,53.775 66.227,52.967 60.746,50.739 62.977,56.219 63.784,54.216 
		66.143,56.573 	"/>
	<path fill="#FFFFFF" d="M66.143,56.684l-2.33-2.33l-0.836,2.072l-2.371-5.828l5.828,2.371l-2.072,0.836l2.33,2.329L66.143,56.684z
		 M63.756,54.077l2.387,2.387l0.328-0.33l-2.387-2.386l1.936-0.781l-5.131-2.086l2.086,5.131L63.756,54.077z"/>
</g>
<g>
	<line fill="none" x1="59.213" y1="49.206" x2="58.389" y2="48.38"/>
	<path fill="#FFFFFF" d="M59.213,49.594c-0.1,0-0.199-0.038-0.273-0.114l-0.826-0.825c-0.15-0.152-0.15-0.397,0-0.549
		c0.152-0.151,0.396-0.151,0.55,0l0.825,0.826c0.15,0.151,0.15,0.397,0,0.549C59.412,49.556,59.312,49.594,59.213,49.594z"/>
</g>
<g>
	<line fill="none" x1="58.652" y1="50.178" x2="57.523" y2="49.876"/>
	<path fill="#FFFFFF" d="M58.652,50.566c-0.033,0-0.067-0.004-0.103-0.014l-1.127-0.303c-0.207-0.055-0.33-0.268-0.274-0.475
		c0.057-0.207,0.27-0.33,0.477-0.274l1.127,0.303c0.207,0.056,0.33,0.268,0.275,0.475C58.98,50.452,58.823,50.566,58.652,50.566z"/>
</g>
<g>
	<line fill="none" x1="58.652" y1="51.301" x2="57.523" y2="51.604"/>
	<path fill="#FFFFFF" d="M57.523,51.99c-0.172,0-0.328-0.113-0.375-0.287c-0.056-0.207,0.067-0.42,0.274-0.475l1.127-0.303
		c0.208-0.055,0.421,0.067,0.478,0.275c0.055,0.206-0.068,0.42-0.275,0.475l-1.127,0.303C57.591,51.986,57.557,51.99,57.523,51.99z"
		/>
</g>
<g>
	<line fill="none" x1="59.213" y1="52.273" x2="58.389" y2="53.1"/>
	<path fill="#FFFFFF" d="M58.389,53.486c-0.101,0-0.199-0.037-0.275-0.114c-0.151-0.149-0.151-0.396,0-0.548l0.826-0.825
		c0.15-0.151,0.396-0.151,0.549,0s0.15,0.397,0,0.548l-0.825,0.827C58.586,53.449,58.486,53.486,58.389,53.486z"/>
</g>
<g>
	<line fill="none" x1="60.186" y1="52.835" x2="59.883" y2="53.963"/>
	<path fill="#FFFFFF" d="M59.883,54.352c-0.031,0-0.066-0.006-0.1-0.015c-0.207-0.056-0.33-0.269-0.275-0.476l0.303-1.129
		c0.056-0.205,0.27-0.328,0.476-0.272c0.207,0.056,0.33,0.269,0.274,0.476l-0.303,1.127C60.212,54.234,60.055,54.352,59.883,54.352z
		"/>
</g>
<g>
	<line fill="none" x1="62.842" y1="50.178" x2="63.971" y2="49.876"/>
	<path fill="#FFFFFF" d="M62.842,50.566c-0.172,0-0.328-0.114-0.374-0.289c-0.056-0.207,0.066-0.419,0.274-0.475l1.127-0.303
		c0.206-0.055,0.419,0.067,0.475,0.274c0.057,0.207-0.066,0.42-0.273,0.475l-1.127,0.303C62.908,50.562,62.875,50.566,62.842,50.566
		z"/>
</g>
<g>
	<line fill="none" x1="62.281" y1="49.206" x2="63.105" y2="48.38"/>
	<path fill="#FFFFFF" d="M62.281,49.594c-0.102,0-0.199-0.038-0.274-0.114c-0.151-0.151-0.151-0.397-0.001-0.548l0.826-0.826
		c0.15-0.152,0.396-0.151,0.548,0c0.152,0.151,0.152,0.397,0,0.548l-0.823,0.826C62.479,49.556,62.38,49.594,62.281,49.594z"/>
</g>
<g>
	<line fill="none" x1="61.309" y1="48.645" x2="61.609" y2="47.517"/>
	<path fill="#FFFFFF" d="M61.311,49.032c-0.035,0-0.068-0.004-0.103-0.013c-0.208-0.056-0.33-0.269-0.274-0.476l0.303-1.128
		c0.056-0.207,0.268-0.33,0.476-0.274c0.207,0.056,0.329,0.268,0.272,0.476l-0.301,1.127C61.637,48.918,61.479,49.032,61.311,49.032
		z"/>
</g>
<g>
	<line fill="none" x1="60.186" y1="48.645" x2="59.883" y2="47.517"/>
	<path fill="#FFFFFF" d="M60.186,49.032c-0.172,0-0.328-0.114-0.375-0.288l-0.303-1.127c-0.055-0.207,0.068-0.42,0.275-0.476
		c0.205-0.056,0.42,0.067,0.475,0.274l0.303,1.128c0.056,0.207-0.067,0.42-0.274,0.476C60.252,49.028,60.219,49.032,60.186,49.032z"
		/>
</g>
<text transform="matrix(1 0 0 1 34.001 46)" fill="#FFFFFF" font-family="'Folks-Normal'" font-size="5">lasmartphonerie</text>
<circle fill="#5FAF4E" stroke="#FFFFFF" stroke-width="3" stroke-miterlimit="10" cx="18.051" cy="82.25" r="12.25"/>
<text transform="matrix(1 0 0 1 15.2817 86)" fill="#FFFFFF" font-family="'Folks-Normal'" font-size="10">1</text>
</svg>
