<?xml version="1.0" encoding="utf-8"?>
<!-- Generator: Adobe Illustrator 16.0.0, SVG Export Plug-In . SVG Version: 6.00 Build 0)  -->
<!DOCTYPE svg PUBLIC "-//W3C//DTD SVG 1.1//EN" "http://www.w3.org/Graphics/SVG/1.1/DTD/svg11.dtd">
<svg version="1.1" id="Layer_1" xmlns="http://www.w3.org/2000/svg" xmlns:xlink="http://www.w3.org/1999/xlink" x="0px" y="0px"
	 width="100px" height="100px" viewBox="0 0 100 100" enable-background="new 0 0 100 100" xml:space="preserve">
<rect x="25.505" y="29.645" fill="#FFFFFF" width="48.581" height="5.31"/>
<rect x="25.505" y="18.595" fill="#FFFFFF" width="48.581" height="5.311"/>
<rect x="25.505" y="40.694" fill="#FFFFFF" width="48.581" height="5.31"/>
<rect x="25.505" y="51.744" fill="#FFFFFF" width="23.118" height="5.311"/>
<path fill="#FFFFFF" d="M78.256,7.797H21.244c-3.536,0-6.404,2.868-6.404,6.405v69.395c0,3.539,2.868,6.404,6.404,6.404h32.082
	v-4.426H23.948c-2.359,0-4.271-1.912-4.271-4.269V16.493c0-2.358,1.912-4.269,4.271-4.269h51.603c2.358,0,4.271,1.911,4.271,4.269
	v64.813c0,2.357-1.913,4.269-4.271,4.269h-1.727v4.425h4.432c3.537,0,6.405-2.865,6.405-6.403V14.202
	C84.661,10.665,81.792,7.797,78.256,7.797z"/>
<path fill="#FFFFFF" d="M73.782,68.719l5.474-2.604l-5.436-2.68l3.438-4.992l-6.049,0.396l0.484-6.041l-5.041,3.365l-2.603-5.473
	l-2.682,5.434l-4.991-3.435l0.396,6.045l-6.04-0.479l3.365,5.038l-5.473,2.604l5.435,2.68l-3.437,4.991l6.045-0.394l-0.482,6.039
	l5.043-3.367l2.604,5.475l2.68-5.435l4.989,3.437l-0.392-6.047l6.039,0.484L73.782,68.719z M72.499,63.449l-8.607,10.185
	c-0.434,0.518-1.078,0.818-1.755,0.823c-0.003,0-0.009,0-0.014,0c-0.672,0-1.31-0.292-1.75-0.796l-3.847-4.414
	c-0.842-0.967-0.74-2.432,0.223-3.271c0.968-0.843,2.434-0.742,3.274,0.225l2.068,2.374l6.863-8.119
	c0.825-0.979,2.291-1.104,3.268-0.274C73.201,61.008,73.325,62.471,72.499,63.449z"/>
<polygon fill="#FFFFFF" points="71.501,93.192 63.821,86.728 56.186,93.192 56.186,80.563 61.036,78.158 63.821,83.299 
	66.727,78.173 71.501,80.563 "/>
</svg>
