<?xml version="1.0" encoding="utf-8"?>
<!-- Generator: Adobe Illustrator 16.0.0, SVG Export Plug-In . SVG Version: 6.00 Build 0)  -->
<!DOCTYPE svg PUBLIC "-//W3C//DTD SVG 1.1//EN" "http://www.w3.org/Graphics/SVG/1.1/DTD/svg11.dtd">
<svg version="1.1" id="Layer_1" xmlns="http://www.w3.org/2000/svg" xmlns:xlink="http://www.w3.org/1999/xlink" x="0px" y="0px"
	 width="100px" height="100px" viewBox="0 0 100 100" enable-background="new 0 0 100 100" xml:space="preserve">
<polyline fill="#FFFFFF" points="34.537,31.23 41.714,43.575 27.64,37.284 "/>
<path fill="#FFFFFF" d="M35.68,25.744l10.402,19.185l9.297,3.85l21.128-18.895l0.344,4.81L58.987,49.982l-4.124,3.606l4.124-0.342
	V83.65l-47.095-17.1l0.184-34.424l11.769,4.214L35.68,25.744z M30.816,11.849L5.565,26.793l-0.169,2.922l3.605,1.31V69.05
	L60.09,87.852l15.556-6.207l13.916-5.382V36.756l2.8-2.069l-0.051-3.257l-16.663-5.323L30.816,11.849z"/>
<polygon fill="#FFFFFF" points="36.7,50.854 36.728,76.115 25.966,71.764 26.199,47.328 "/>
</svg>
