<?xml version="1.0" encoding="utf-8"?>
<!-- Generator: Adobe Illustrator 16.0.0, SVG Export Plug-In . SVG Version: 6.00 Build 0)  -->
<!DOCTYPE svg PUBLIC "-//W3C//DTD SVG 1.1//EN" "http://www.w3.org/Graphics/SVG/1.1/DTD/svg11.dtd">
<svg version="1.1" id="Layer_1" xmlns="http://www.w3.org/2000/svg" xmlns:xlink="http://www.w3.org/1999/xlink" x="0px" y="0px"
	 width="200px" height="200px" viewBox="0 0 200 200" enable-background="new 0 0 200 200" xml:space="preserve">
<g>
	<circle fill="#EC655F" cx="100" cy="100" r="94.671"/>
</g>
<g>
	<polyline fill="#7EC242" points="139.973,121.038 161.01,121.038 161.01,53.716 38.99,53.716 38.99,121.038 64.453,121.038 	"/>
	<path fill="#2E401C" d="M161.01,123.142h-21.037c-1.163,0-2.104-0.94-2.104-2.104s0.941-2.104,2.104-2.104h18.934V55.82H41.094
		v63.114h23.359c1.162,0,2.104,0.94,2.104,2.104s-0.942,2.104-2.104,2.104H38.99c-1.162,0-2.104-0.94-2.104-2.104V53.716
		c0-1.162,0.942-2.104,2.104-2.104h122.02c1.163,0,2.104,0.942,2.104,2.104v67.322C163.114,122.201,162.173,123.142,161.01,123.142z
		"/>
</g>
<g>
	<path fill="#2E401C" d="M144.18,114.727h-4.207c-1.163,0-2.104-0.941-2.104-2.104c0-1.163,0.941-2.104,2.104-2.104h2.314
		c0.839-4.114,4.089-7.365,8.204-8.203V72.439c-4.115-0.838-7.365-4.088-8.204-8.204H57.712c-0.838,4.115-4.088,7.365-8.204,8.204
		v29.876c4.115,0.838,7.365,4.089,8.204,8.203h12.849c1.162,0,2.104,0.941,2.104,2.104c0,1.162-0.942,2.104-2.104,2.104H55.82
		c-1.162,0-2.104-0.941-2.104-2.104c0-3.48-2.831-6.312-6.311-6.312c-1.162,0-2.104-0.941-2.104-2.104V70.547
		c0-1.162,0.942-2.104,2.104-2.104c3.48,0,6.311-2.831,6.311-6.311c0-1.162,0.942-2.104,2.104-2.104h88.359
		c1.163,0,2.104,0.942,2.104,2.104c0,3.48,2.831,6.311,6.312,6.311c1.163,0,2.104,0.942,2.104,2.104v33.661
		c0,1.162-0.941,2.104-2.104,2.104c-3.48,0-6.312,2.831-6.312,6.312C146.283,113.785,145.343,114.727,144.18,114.727z"/>
</g>
<g>
	<ellipse fill="#36B24A" cx="100" cy="87.377" rx="18.934" ry="25.246"/>
</g>
<g>
	<path fill="#2E401C" d="M89.646,110.604c-0.491,0-0.984-0.171-1.383-0.521c-5.824-5.084-9.302-13.573-9.302-22.706
		c0-15.081,9.438-27.35,21.038-27.35c11.6,0,21.038,12.269,21.038,27.35c0,3.029-0.396,6.052-1.18,8.985
		c-0.298,1.125-1.45,1.793-2.574,1.491c-1.121-0.3-1.789-1.453-1.489-2.575c0.687-2.579,1.035-5.237,1.035-7.9
		c0-12.761-7.55-23.142-16.83-23.142S83.169,74.617,83.169,87.377c0,7.935,2.939,15.24,7.862,19.538
		c0.875,0.765,0.965,2.092,0.201,2.967C90.816,110.358,90.233,110.604,89.646,110.604z"/>
</g>
<g>
	<circle fill="#36B24A" cx="135.765" cy="87.377" r="4.208"/>
	<path fill="#2E401C" d="M135.765,93.688c-3.48,0-6.312-2.831-6.312-6.311c0-3.48,2.831-6.312,6.312-6.312s6.312,2.831,6.312,6.312
		C142.076,90.857,139.245,93.688,135.765,93.688z M135.765,85.273c-1.161,0-2.104,0.944-2.104,2.104c0,1.16,0.942,2.104,2.104,2.104
		s2.104-0.944,2.104-2.104C137.868,86.217,136.926,85.273,135.765,85.273z"/>
</g>
<g>
	<path fill="#FFCD05" d="M102.104,144.18v8.415c0,3.484,6.593,6.312,14.727,6.312s14.727-2.827,14.727-6.312v-8.415"/>
	<path fill="#393229" d="M116.83,161.01c-8.363,0-16.83-2.891-16.83-8.415v-8.415c0-1.163,0.942-2.104,2.104-2.104
		c1.163,0,2.104,0.94,2.104,2.104v8.415c0,1.483,4.793,4.208,12.622,4.208c7.83,0,12.623-2.725,12.623-4.208v-8.415
		c0-1.163,0.941-2.104,2.104-2.104c1.163,0,2.104,0.94,2.104,2.104v8.415C133.661,158.119,125.194,161.01,116.83,161.01z"/>
</g>
<g>
	<path fill="#FFCD05" d="M102.104,135.765v8.415c0,3.484,6.593,6.312,14.727,6.312s14.727-2.827,14.727-6.312v-8.415"/>
	<path fill="#393229" d="M116.83,152.595c-8.363,0-16.83-2.891-16.83-8.415v-8.415c0-1.163,0.942-2.104,2.104-2.104
		c1.163,0,2.104,0.94,2.104,2.104v8.415c0,1.483,4.793,4.208,12.622,4.208c7.83,0,12.623-2.725,12.623-4.208v-8.415
		c0-1.163,0.941-2.104,2.104-2.104c1.163,0,2.104,0.94,2.104,2.104v8.415C133.661,149.704,125.194,152.595,116.83,152.595z"/>
</g>
<g>
	<path fill="#FFCD05" d="M102.104,127.35v8.415c0,3.484,6.593,6.312,14.727,6.312s14.727-2.827,14.727-6.312v-8.415"/>
	<path fill="#393229" d="M116.83,144.18c-8.363,0-16.83-2.891-16.83-8.415v-8.415c0-1.163,0.942-2.104,2.104-2.104
		c1.163,0,2.104,0.941,2.104,2.104v8.415c0,1.483,4.793,4.208,12.622,4.208c7.83,0,12.623-2.725,12.623-4.208v-8.415
		c0-1.163,0.941-2.104,2.104-2.104c1.163,0,2.104,0.941,2.104,2.104v8.415C133.661,141.289,125.194,144.18,116.83,144.18z"/>
</g>
<g>
	<path fill="#FFCD05" d="M102.104,118.935v8.415c0,3.484,6.593,6.312,14.727,6.312s14.727-2.827,14.727-6.312v-8.415"/>
	<path fill="#393229" d="M116.83,135.765c-8.363,0-16.83-2.891-16.83-8.415v-8.415c0-1.163,0.942-2.104,2.104-2.104
		c1.163,0,2.104,0.941,2.104,2.104v8.415c0,1.483,4.793,4.207,12.622,4.207c7.83,0,12.623-2.724,12.623-4.207v-8.415
		c0-1.163,0.941-2.104,2.104-2.104c1.163,0,2.104,0.941,2.104,2.104v8.415C133.661,132.874,125.194,135.765,116.83,135.765z"/>
</g>
<g>
	<path fill="#FFCD05" d="M72.65,139.973v8.415c0,3.484,6.593,6.312,14.727,6.312c8.133,0,14.726-2.827,14.726-6.312v-8.415"/>
	<path fill="#393229" d="M87.377,156.803c-8.364,0-16.831-2.891-16.831-8.415v-8.415c0-1.163,0.942-2.104,2.104-2.104
		c1.162,0,2.104,0.941,2.104,2.104v8.415c0,1.483,4.792,4.207,12.623,4.207c7.831,0,12.623-2.724,12.623-4.207v-8.415
		c0-1.163,0.942-2.104,2.104-2.104c1.163,0,2.104,0.941,2.104,2.104v8.415C104.208,153.912,95.741,156.803,87.377,156.803z"/>
</g>
<g>
	<path fill="#FFCD05" d="M72.65,131.557v8.416c0,3.484,6.593,6.311,14.727,6.311c8.133,0,14.726-2.826,14.726-6.311v-8.416"/>
	<path fill="#393229" d="M87.377,148.388c-8.364,0-16.831-2.891-16.831-8.415v-8.416c0-1.162,0.942-2.104,2.104-2.104
		c1.162,0,2.104,0.941,2.104,2.104v8.416c0,1.482,4.792,4.207,12.623,4.207c7.831,0,12.623-2.725,12.623-4.207v-8.416
		c0-1.162,0.942-2.104,2.104-2.104c1.163,0,2.104,0.941,2.104,2.104v8.416C104.208,145.497,95.741,148.388,87.377,148.388z"/>
</g>
<g>
	<path fill="#FFCD05" d="M102.104,110.519v8.416c0,3.484,6.593,6.311,14.727,6.311s14.727-2.826,14.727-6.311v-8.416"/>
	<path fill="#393229" d="M116.83,127.35c-8.363,0-16.83-2.891-16.83-8.415v-8.416c0-1.162,0.942-2.104,2.104-2.104
		c1.163,0,2.104,0.941,2.104,2.104v8.416c0,1.483,4.793,4.207,12.622,4.207c7.83,0,12.623-2.724,12.623-4.207v-8.416
		c0-1.162,0.941-2.104,2.104-2.104c1.163,0,2.104,0.941,2.104,2.104v8.416C133.661,124.459,125.194,127.35,116.83,127.35z"/>
</g>
<g>
	<path fill="#FFCD05" d="M72.65,123.142v8.415c0,3.484,6.593,6.312,14.727,6.312c8.133,0,14.726-2.827,14.726-6.312v-8.415"/>
	<path fill="#393229" d="M87.377,139.973c-8.364,0-16.831-2.892-16.831-8.416v-8.415c0-1.163,0.942-2.104,2.104-2.104
		c1.162,0,2.104,0.94,2.104,2.104v8.415c0,1.483,4.792,4.208,12.623,4.208c7.831,0,12.623-2.725,12.623-4.208v-8.415
		c0-1.163,0.942-2.104,2.104-2.104c1.163,0,2.104,0.94,2.104,2.104v8.415C104.208,137.081,95.741,139.973,87.377,139.973z"/>
</g>
<g>
	<ellipse fill="#FFCD05" cx="87.377" cy="123.142" rx="14.727" ry="6.312"/>
	<path fill="#393229" d="M87.377,131.557c-8.364,0-16.831-2.891-16.831-8.415s8.466-8.415,16.831-8.415
		c8.364,0,16.831,2.891,16.831,8.415S95.741,131.557,87.377,131.557z M87.377,118.935c-7.831,0-12.623,2.724-12.623,4.207
		s4.792,4.208,12.623,4.208c7.831,0,12.623-2.725,12.623-4.208S95.208,118.935,87.377,118.935z"/>
</g>
<g>
	<path fill="#7EC242" d="M113.744,104.705c-1.853-1.603-4.7-3.771-8.119-4.377c-0.54-0.096-0.931-0.56-0.906-1.106
		c0.025-0.595,0.025-1.225,0.023-1.882c0-1.506,1.812-3.321,1.91-5.436c0.604-1.252,0.949-2.497,0.949-3.46
		c0-0.633-0.156-1.048-0.43-1.322c0.148-0.788,0.275-1.621,0.43-2.479c0.62-3.447-0.583-5.933-3.611-7.009
		c-1.094-0.387-5.625-1.173-7.316-2.81c-0.61-0.592-0.191,2.744-0.746,2.992c-2.967,1.334-4.144,3.41-3.53,6.826
		c0.154,0.858,0.281,1.691,0.429,2.479c-0.273,0.274-0.429,0.689-0.429,1.322c0,0.963,0.345,2.208,0.949,3.46
		c0.099,2.115,1.911,3.824,1.911,5.436c-0.002,0.657-0.002,1.287,0.022,1.882c0.025,0.547-0.366,1.011-0.906,1.106
		c-3.419,0.607-6.267,2.775-8.12,4.377c3.452,4.865,8.325,7.918,13.745,7.918S110.293,109.57,113.744,104.705z"/>
</g>
<g>
	<ellipse fill="#FFCD05" cx="116.83" cy="110.519" rx="14.727" ry="6.312"/>
	<path fill="#393229" d="M116.83,118.935c-8.363,0-16.83-2.891-16.83-8.416c0-5.524,8.467-8.415,16.83-8.415
		c8.364,0,16.831,2.891,16.831,8.415C133.661,116.044,125.194,118.935,116.83,118.935z M116.83,106.312
		c-7.829,0-12.622,2.725-12.622,4.207c0,1.483,4.793,4.208,12.622,4.208c7.83,0,12.623-2.725,12.623-4.208
		C129.453,109.036,124.66,106.312,116.83,106.312z"/>
</g>
<g>
	<path fill="#FFCD05" d="M131.557,135.765v8.415c0,3.484,6.593,6.312,14.727,6.312s14.727-2.827,14.727-6.312v-8.415"/>
	<path fill="#393229" d="M146.283,152.595c-8.363,0-16.83-2.891-16.83-8.415v-8.415c0-1.163,0.941-2.104,2.104-2.104
		c1.163,0,2.104,0.94,2.104,2.104v8.415c0,1.483,4.793,4.208,12.622,4.208c7.83,0,12.623-2.725,12.623-4.208v-8.415
		c0-1.163,0.941-2.104,2.104-2.104c1.163,0,2.104,0.94,2.104,2.104v8.415C163.114,149.704,154.647,152.595,146.283,152.595z"/>
</g>
<g>
	<ellipse fill="#FFCD05" cx="146.283" cy="135.765" rx="14.727" ry="6.312"/>
	<path fill="#393229" d="M146.283,144.18c-8.363,0-16.83-2.891-16.83-8.415s8.467-8.415,16.83-8.415
		c8.364,0,16.831,2.891,16.831,8.415S154.647,144.18,146.283,144.18z M146.283,131.557c-7.829,0-12.622,2.725-12.622,4.208
		s4.793,4.208,12.622,4.208c7.83,0,12.623-2.725,12.623-4.208S154.113,131.557,146.283,131.557z"/>
</g>
<g>
	<circle fill="#36B24A" cx="64.235" cy="87.377" r="4.208"/>
	<path fill="#2E401C" d="M64.235,93.688c-3.48,0-6.312-2.831-6.312-6.311c0-3.48,2.832-6.312,6.312-6.312
		c3.48,0,6.312,2.831,6.312,6.312C70.547,90.857,67.716,93.688,64.235,93.688z M64.235,85.273c-1.16,0-2.104,0.944-2.104,2.104
		c0,1.16,0.944,2.104,2.104,2.104s2.104-0.944,2.104-2.104C66.339,86.217,65.395,85.273,64.235,85.273z"/>
</g>
<g>
	<path fill="#2E401C" d="M89.694,110.605c-0.49,0-0.983-0.171-1.382-0.518c-1.427-1.245-2.696-2.646-3.773-4.167
		c-0.627-0.883-0.479-2.1,0.34-2.809c1.876-1.62,4.717-3.807,8.279-4.677c-0.004-0.359-0.004-0.728-0.003-1.102
		c0-0.248-0.372-0.959-0.617-1.431c-0.489-0.937-1.087-2.081-1.252-3.446c-0.641-1.427-0.99-2.839-0.99-4.013
		c0-0.648,0.108-1.228,0.323-1.734c-0.033-0.194-0.066-0.391-0.1-0.589l-0.19-1.105c-0.708-3.94,0.58-6.85,3.831-8.663
		c0.005-0.116,0.01-0.236,0.015-0.354c0.061-1.172,0.135-2.631,1.568-3.195c0.771-0.299,1.805-0.062,2.397,0.512
		c0.895,0.866,3.757,1.592,5.132,1.941c0.627,0.159,1.13,0.292,1.422,0.396c3.981,1.414,5.796,4.827,4.98,9.364l-0.191,1.104
		c-0.033,0.198-0.065,0.395-0.099,0.589c0.214,0.506,0.322,1.086,0.322,1.734c0,1.173-0.349,2.586-0.99,4.012
		c-0.166,1.382-0.772,2.56-1.27,3.523c-0.232,0.45-0.581,1.13-0.6,1.37l-0.002,0.214c-0.021,1.149-0.96,2.161-2.106,2.161
		c-0.006,0-0.01,0-0.016,0c-1.155-0.01-2.088-0.856-2.088-2.011c0-0.011,0.002-0.209,0.002-0.221c0.002-1.37,0.545-2.422,1.068-3.44
		c0.4-0.778,0.815-1.582,0.847-2.246c0.015-0.284,0.084-0.561,0.207-0.816c0.463-0.961,0.74-1.913,0.74-2.546
		c0-0.023,0.002-0.036,0.008-0.038c-0.363-0.471-0.514-1.08-0.4-1.672c0.078-0.424,0.152-0.862,0.228-1.31l0.197-1.152
		c0.58-3.213-0.896-4.176-2.245-4.655c-0.214-0.076-0.586-0.165-1.05-0.282c-1.404-0.356-2.829-0.744-4.093-1.248
		c-0.196,0.696-0.576,1.302-1.354,1.65c-2.141,0.963-2.749,2.149-2.32,4.535l0.198,1.152c0.075,0.448,0.148,0.886,0.228,1.31
		c0.109,0.583-0.033,1.182-0.384,1.65c0.012,0.764,0.285,1.681,0.731,2.606c0.124,0.255,0.193,0.533,0.207,0.816
		c0.03,0.64,0.412,1.374,0.818,2.15c0.514,0.983,1.095,2.098,1.095,3.384c-0.002,0.631-0.003,1.229,0.021,1.794
		c0.072,1.58-1.064,2.986-2.641,3.266c-2.124,0.376-4.033,1.502-5.55,2.634c0.582,0.666,1.212,1.295,1.886,1.882
		c0.876,0.765,0.967,2.094,0.203,2.969C90.865,110.36,90.28,110.605,89.694,110.605z"/>
</g>
</svg>
