<?xml version="1.0" encoding="utf-8"?>
<!-- Generator: Adobe Illustrator 16.0.0, SVG Export Plug-In . SVG Version: 6.00 Build 0)  -->
<!DOCTYPE svg PUBLIC "-//W3C//DTD SVG 1.1//EN" "http://www.w3.org/Graphics/SVG/1.1/DTD/svg11.dtd">
<svg version="1.1" id="Layer_2" xmlns="http://www.w3.org/2000/svg" xmlns:xlink="http://www.w3.org/1999/xlink" x="0px" y="0px"
	 width="100px" height="100px" viewBox="0 0 100 100" enable-background="new 0 0 100 100" xml:space="preserve">
<circle fill="#E13A75" cx="50.885" cy="50.5" r="45"/>
<g>
	<g>
		<path fill="#3AAF85" d="M63.917,36.218c0-6.812-5.522-12.333-12.333-12.333c-6.812,0-12.334,5.521-12.334,12.333
			s7.204,20.575,12.334,26.564C57.306,56.704,63.917,43.03,63.917,36.218z"/>
		<ellipse fill="#FFFFFF" cx="51.333" cy="70.584" rx="10.917" ry="2.083"/>
	</g>
	<path fill="#FFFFFF" d="M55.885,27.089c0,0,3.07,0.906,4.026,3.573c0.956,2.667-1.157,2.868-1.359,1.308
		c-0.201-1.56-2.163-3.17-3.02-3.17C54.677,28.8,54.375,27.089,55.885,27.089z"/>
</g>
</svg>
