<?xml version="1.0" encoding="utf-8"?>
<!-- Generator: Adobe Illustrator 16.0.0, SVG Export Plug-In . SVG Version: 6.00 Build 0)  -->
<!DOCTYPE svg PUBLIC "-//W3C//DTD SVG 1.1//EN" "http://www.w3.org/Graphics/SVG/1.1/DTD/svg11.dtd">
<svg version="1.1" id="Layer_1" xmlns="http://www.w3.org/2000/svg" xmlns:xlink="http://www.w3.org/1999/xlink" x="0px" y="0px"
	 width="200px" height="200px" viewBox="0 0 200 200" enable-background="new 0 0 200 200" xml:space="preserve">
<g>
	<circle fill="#A7ADB3" cx="100" cy="100" r="94.343"/>
</g>
<g>
	<path fill="#EEEAE1" d="M150.316,129.352h4.192c4.632,0,8.387-3.755,8.387-8.387v-15.396c0-2.223-0.885-4.355-2.457-5.928
		l-15.691-15.693c-3.146-3.146-7.411-4.913-11.86-4.913h-16.114v50.316h12.579H150.316z"/>
</g>
<g>
	<path fill="#DAE3E6" d="M125.158,104.193h37.602c-0.286-1.712-1.076-3.31-2.321-4.553l-12.219-12.22h-23.062V104.193z"/>
	<path fill="#242E39" d="M162.76,106.289h-37.602c-1.159,0-2.097-0.938-2.097-2.096V87.421c0-1.158,0.938-2.097,2.097-2.097h23.062
		c0.557,0,1.089,0.221,1.482,0.614l12.219,12.22c1.535,1.533,2.54,3.5,2.907,5.688c0.103,0.608-0.07,1.23-0.467,1.702
		C163.962,106.018,163.376,106.289,162.76,106.289z M127.255,102.097h32.493c-0.229-0.35-0.493-0.676-0.79-0.973l-11.606-11.606
		h-20.097V102.097z"/>
</g>
<g>
	<path fill="#E45544" d="M162.896,118.868h-8.387c-1.158,0-2.096-0.938-2.096-2.096c0-1.159,0.938-2.097,2.096-2.097h8.387
		c1.158,0,2.097,0.938,2.097,2.097C164.992,117.931,164.054,118.868,162.896,118.868z"/>
</g>
<g>
	<path fill="#393229" d="M154.509,131.447h-41.93c-1.159,0-2.097-0.938-2.097-2.096V79.035c0-1.158,0.938-2.097,2.097-2.097h20.308
		c5.039,0,9.778,1.962,13.343,5.527l15.691,15.693c1.979,1.98,3.071,4.612,3.071,7.41v15.396
		C164.992,126.745,160.289,131.447,154.509,131.447z M114.676,127.255h39.833c3.469,0,6.29-2.821,6.29-6.29v-15.396
		c0-1.679-0.655-3.257-1.843-4.445L143.265,85.43c-2.771-2.772-6.459-4.298-10.378-4.298h-18.211V127.255z"/>
</g>
<g>
	<path fill="#7EC242" d="M116.772,116.772V74.842c0-6.947-5.633-12.579-12.579-12.579H53.877c-6.947,0-12.579,5.632-12.579,12.579
		v41.931H116.772z"/>
	<path fill="#2E401C" d="M116.772,118.868H41.298c-1.158,0-2.097-0.938-2.097-2.096V74.842c0-8.092,6.583-14.675,14.676-14.675
		h50.316c8.091,0,14.675,6.583,14.675,14.675v41.931C118.868,117.931,117.931,118.868,116.772,118.868z M43.395,114.676h71.281
		V74.842c0-5.78-4.703-10.482-10.482-10.482H53.877c-5.78,0-10.482,4.703-10.482,10.482V114.676z"/>
</g>
<g>
	<g>
		<line fill="#7EC242" x1="49.684" y1="104.193" x2="49.684" y2="112.579"/>
		<path fill="#2E401C" d="M49.684,114.676c-1.158,0-2.097-0.938-2.097-2.097v-8.386c0-1.159,0.938-2.097,2.097-2.097
			c1.158,0,2.096,0.938,2.096,2.097v8.386C51.78,113.738,50.842,114.676,49.684,114.676z"/>
	</g>
	<g>
		<line fill="#7EC242" x1="58.07" y1="104.193" x2="58.07" y2="112.579"/>
		<path fill="#2E401C" d="M58.07,114.676c-1.158,0-2.097-0.938-2.097-2.097v-8.386c0-1.159,0.939-2.097,2.097-2.097
			s2.097,0.938,2.097,2.097v8.386C60.167,113.738,59.228,114.676,58.07,114.676z"/>
	</g>
	<g>
		<line fill="#7EC242" x1="66.456" y1="104.193" x2="66.456" y2="112.579"/>
		<path fill="#2E401C" d="M66.456,114.676c-1.158,0-2.097-0.938-2.097-2.097v-8.386c0-1.159,0.939-2.097,2.097-2.097
			s2.096,0.938,2.096,2.097v8.386C68.552,113.738,67.614,114.676,66.456,114.676z"/>
	</g>
	<g>
		<line fill="#7EC242" x1="74.842" y1="104.193" x2="74.842" y2="112.579"/>
		<path fill="#2E401C" d="M74.842,114.676c-1.158,0-2.096-0.938-2.096-2.097v-8.386c0-1.159,0.938-2.097,2.096-2.097
			s2.097,0.938,2.097,2.097v8.386C76.938,113.738,76,114.676,74.842,114.676z"/>
	</g>
	<g>
		<line fill="#7EC242" x1="83.228" y1="104.193" x2="83.228" y2="112.579"/>
		<path fill="#2E401C" d="M83.228,114.676c-1.158,0-2.097-0.938-2.097-2.097v-8.386c0-1.159,0.939-2.097,2.097-2.097
			s2.096,0.938,2.096,2.097v8.386C85.324,113.738,84.386,114.676,83.228,114.676z"/>
	</g>
	<g>
		<line fill="#7EC242" x1="91.614" y1="104.193" x2="91.614" y2="112.579"/>
		<path fill="#2E401C" d="M91.614,114.676c-1.158,0-2.096-0.938-2.096-2.097v-8.386c0-1.159,0.938-2.097,2.096-2.097
			c1.158,0,2.097,0.938,2.097,2.097v8.386C93.71,113.738,92.772,114.676,91.614,114.676z"/>
	</g>
	<g>
		<line fill="#7EC242" x1="100" y1="104.193" x2="100" y2="112.579"/>
		<path fill="#2E401C" d="M100,114.676c-1.158,0-2.097-0.938-2.097-2.097v-8.386c0-1.159,0.939-2.097,2.097-2.097
			c1.158,0,2.097,0.938,2.097,2.097v8.386C102.097,113.738,101.158,114.676,100,114.676z"/>
	</g>
	<g>
		<line fill="#7EC242" x1="108.386" y1="104.193" x2="108.386" y2="112.579"/>
		<path fill="#2E401C" d="M108.386,114.676c-1.158,0-2.097-0.938-2.097-2.097v-8.386c0-1.159,0.938-2.097,2.097-2.097
			c1.159,0,2.097,0.938,2.097,2.097v8.386C110.482,113.738,109.545,114.676,108.386,114.676z"/>
	</g>
</g>
<g>
	<path fill="#EEEAE1" d="M41.298,112.579v4.193c0,6.946,5.632,12.579,12.579,12.579h62.896v-16.772H41.298z"/>
	<path fill="#393229" d="M116.772,131.447H53.877c-8.092,0-14.676-6.584-14.676-14.675v-4.193c0-1.159,0.939-2.097,2.097-2.097
		h75.475c1.158,0,2.096,0.938,2.096,2.097v16.772C118.868,130.51,117.931,131.447,116.772,131.447z M43.395,114.676v2.097
		c0,5.779,4.703,10.482,10.482,10.482h60.799v-12.579H43.395z"/>
</g>
<g>
	<g>
		<circle fill="#A7ADB3" cx="68.552" cy="131.447" r="10.483"/>
		<path fill="#242E39" d="M68.552,144.026c-6.937,0-12.579-5.643-12.579-12.579s5.643-12.579,12.579-12.579
			s12.579,5.643,12.579,12.579S75.489,144.026,68.552,144.026z M68.552,123.062c-4.624,0-8.386,3.761-8.386,8.386
			s3.762,8.387,8.386,8.387s8.386-3.762,8.386-8.387S73.176,123.062,68.552,123.062z"/>
	</g>
	<g>
		<circle fill="#A7ADB3" cx="68.552" cy="131.447" r="2.096"/>
		<path fill="#242E39" d="M68.552,135.641c-2.312,0-4.193-1.882-4.193-4.193s1.88-4.192,4.193-4.192s4.193,1.881,4.193,4.192
			S70.865,135.641,68.552,135.641z"/>
	</g>
	<g>
		<circle fill="#A7ADB3" cx="139.834" cy="131.447" r="10.482"/>
		<path fill="#242E39" d="M139.834,144.026c-6.937,0-12.579-5.643-12.579-12.579s5.643-12.579,12.579-12.579
			s12.579,5.643,12.579,12.579S146.771,144.026,139.834,144.026z M139.834,123.062c-4.625,0-8.387,3.761-8.387,8.386
			s3.762,8.387,8.387,8.387s8.386-3.762,8.386-8.387S144.459,123.062,139.834,123.062z"/>
	</g>
	<g>
		<circle fill="#A7ADB3" cx="139.833" cy="131.447" r="2.096"/>
		<path fill="#242E39" d="M139.834,135.641c-2.312,0-4.193-1.882-4.193-4.193s1.882-4.192,4.193-4.192s4.192,1.881,4.192,4.192
			S142.146,135.641,139.834,135.641z"/>
	</g>
</g>
</svg>
