<?xml version="1.0" encoding="utf-8"?>
<!-- Generator: Adobe Illustrator 16.0.0, SVG Export Plug-In . SVG Version: 6.00 Build 0)  -->
<!DOCTYPE svg PUBLIC "-//W3C//DTD SVG 1.1//EN" "http://www.w3.org/Graphics/SVG/1.1/DTD/svg11.dtd">
<svg version="1.1" id="Layer_1" xmlns="http://www.w3.org/2000/svg" xmlns:xlink="http://www.w3.org/1999/xlink" x="0px" y="0px"
	 width="500px" height="500px" viewBox="0 0 500 500" enable-background="new 0 0 500 500" xml:space="preserve">
<g>
	<path fill="#F0C419" d="M477.541,250c0-125.666-101.87-227.541-227.541-227.541C124.332,22.459,22.459,124.334,22.459,250
		S124.332,477.541,250,477.541C375.671,477.541,477.541,375.666,477.541,250z"/>
</g>
<g>
	<path fill="#FFFFFF" d="M255.057,396.638H153.927c-5.585,0-10.113-4.528-10.113-10.113V174.153c0-5.584,4.528-10.113,10.113-10.113
		h101.129c5.585,0,10.112,4.528,10.112,10.113v212.372C265.169,392.109,260.642,396.638,255.057,396.638z"/>
</g>
<g>
	<rect x="143.814" y="204.492" fill="#89ADDB" width="121.355" height="131.468"/>
</g>
<g>
	<path fill="#101213" d="M255.057,401.694H153.927c-8.365,0-15.169-6.805-15.169-15.17V174.153c0-8.365,6.804-15.169,15.169-15.169
		h60.677c2.792,0,5.057,2.264,5.057,5.057s-2.264,5.057-5.057,5.057h-60.677c-2.788,0-5.057,2.269-5.057,5.056v212.372
		c0,2.79,2.269,5.057,5.057,5.057h101.129c2.79,0,5.057-2.267,5.057-5.057V255.057c0-2.793,2.262-5.057,5.056-5.057
		c2.795,0,5.057,2.264,5.057,5.057v131.468C270.226,394.89,263.421,401.694,255.057,401.694z"/>
</g>
<g>
	<path fill="#7EC242" d="M234.831,123.588v60.678c0,11.169,9.056,20.226,20.226,20.226h10.112v30.339l30.339-30.339h60.678
		c11.17,0,20.227-9.056,20.227-20.226v-60.678c0-11.17-9.057-20.226-20.227-20.226H255.057
		C243.887,103.362,234.831,112.418,234.831,123.588z"/>
	<path fill="#2E401C" d="M265.169,239.887c-0.651,0-1.308-0.126-1.936-0.385c-1.891-0.783-3.12-2.627-3.12-4.671v-25.282h-5.057
		c-13.94,0-25.283-11.343-25.283-25.282v-60.678c0-13.94,11.343-25.282,25.283-25.282h101.129c13.94,0,25.282,11.342,25.282,25.282
		v60.678c0,13.939-11.342,25.282-25.282,25.282h-58.584l-28.857,28.857C267.776,239.374,266.482,239.887,265.169,239.887z
		 M255.057,108.419c-8.365,0-15.169,6.805-15.169,15.169v60.678c0,8.365,6.804,15.169,15.169,15.169h10.112
		c2.795,0,5.057,2.264,5.057,5.056v18.132l21.708-21.708c0.947-0.948,2.231-1.481,3.574-1.481h60.678
		c8.365,0,15.17-6.805,15.17-15.169v-60.678c0-8.365-6.805-15.169-15.17-15.169H255.057z"/>
</g>
<g>
	<path fill="#101213" d="M265.169,341.017H143.814c-2.792,0-5.056-2.262-5.056-5.057s2.264-5.057,5.056-5.057h121.355
		c2.795,0,5.057,2.262,5.057,5.057S267.964,341.017,265.169,341.017z"/>
</g>
<g>
	<path fill="#101213" d="M219.661,209.548h-75.847c-2.792,0-5.056-2.264-5.056-5.057s2.264-5.056,5.056-5.056h75.847
		c2.792,0,5.057,2.264,5.057,5.056S222.454,209.548,219.661,209.548z"/>
</g>
<g>
	<path fill="#101213" d="M214.604,189.322h-20.226c-2.792,0-5.057-2.264-5.057-5.056c0-2.792,2.264-5.057,5.057-5.057h20.226
		c2.792,0,5.057,2.264,5.057,5.057C219.661,187.058,217.397,189.322,214.604,189.322z"/>
</g>
<g>
	<path fill="#2E401C" d="M335.96,158.983c-1.313,0-2.632-0.558-3.59-1.466c-0.914-0.96-1.467-2.276-1.467-3.59
		c0-1.316,0.553-2.629,1.467-3.59c1.871-1.872,5.309-1.872,7.18,0c0.908,0.96,1.467,2.274,1.467,3.59
		c0,1.313-0.559,2.629-1.467,3.59C338.587,158.426,337.273,158.983,335.96,158.983z"/>
</g>
<g>
	<path fill="#2E401C" d="M305.621,158.983c-1.313,0-2.632-0.558-3.59-1.466c-0.913-0.96-1.467-2.276-1.467-3.59
		c0-1.316,0.554-2.629,1.467-3.59c1.921-1.872,5.309-1.872,7.18,0c0.908,0.96,1.467,2.274,1.467,3.59
		c0,1.313-0.559,2.629-1.467,3.59C308.248,158.426,306.935,158.983,305.621,158.983z"/>
</g>
<g>
	<path fill="#2E401C" d="M275.282,158.983c-1.313,0-2.632-0.558-3.59-1.466c-0.913-0.96-1.467-2.276-1.467-3.59
		c0-1.316,0.554-2.629,1.467-3.59c1.871-1.872,5.259-1.872,7.18,0c0.909,0.96,1.467,2.274,1.467,3.59
		c0,1.313-0.558,2.629-1.467,3.59C277.909,158.426,276.596,158.983,275.282,158.983z"/>
</g>
<g>
	<circle fill="#5C6976" cx="204.492" cy="366.299" r="10.113"/>
	<path fill="#101213" d="M204.492,381.468c-8.365,0-15.169-6.804-15.169-15.169s6.805-15.17,15.169-15.17s15.169,6.805,15.169,15.17
		S212.856,381.468,204.492,381.468z M204.492,361.242c-2.788,0-5.056,2.267-5.056,5.057s2.269,5.057,5.056,5.057
		s5.057-2.267,5.057-5.057S207.279,361.242,204.492,361.242z"/>
</g>
</svg>
