<?xml version="1.0" encoding="utf-8"?>
<!-- Generator: Adobe Illustrator 16.0.0, SVG Export Plug-In . SVG Version: 6.00 Build 0)  -->
<!DOCTYPE svg PUBLIC "-//W3C//DTD SVG 1.1//EN" "http://www.w3.org/Graphics/SVG/1.1/DTD/svg11.dtd">
<svg version="1.1" id="Layer_1" xmlns="http://www.w3.org/2000/svg" xmlns:xlink="http://www.w3.org/1999/xlink" x="0px" y="0px"
	 width="841.89px" height="595.28px" viewBox="0 0 841.89 595.28" enable-background="new 0 0 841.89 595.28" xml:space="preserve">
<g>
	<path fill="#F0C419" d="M601,297c0-99.41-80.586-180-180-180c-99.412,0-180,80.59-180,180s80.588,180,180,180
		C520.414,477,601,396.41,601,297z"/>
</g>
<g>
	<path fill="#FFFFFF" d="M425,413h-80c-4.418,0-8-3.582-8-8V237c0-4.418,3.582-8,8-8h80c4.418,0,8,3.582,8,8v168
		C433,409.418,429.418,413,425,413z"/>
</g>
<g>
	<rect x="337" y="261" fill="#89ADDB" width="96" height="104"/>
</g>
<g>
	<path fill="#101213" d="M425,417h-80c-6.617,0-12-5.383-12-12V237c0-6.617,5.383-12,12-12h48c2.209,0,4,1.791,4,4s-1.791,4-4,4h-48
		c-2.205,0-4,1.795-4,4v168c0,2.207,1.795,4,4,4h80c2.207,0,4-1.793,4-4V301c0-2.209,1.789-4,4-4s4,1.791,4,4v104
		C437,411.617,431.617,417,425,417z"/>
</g>
<g>
	<path fill="#7EC242" d="M409,197v48c0,8.836,7.164,16,16,16h8v24l24-24h48c8.836,0,16-7.164,16-16v-48c0-8.836-7.164-16-16-16h-80
		C416.164,181,409,188.164,409,197z"/>
	<path fill="#2E401C" d="M433,289c-0.516,0-1.035-0.1-1.531-0.305C429.973,288.076,429,286.617,429,285v-20h-4
		c-11.027,0-20-8.973-20-20v-48c0-11.027,8.973-20,20-20h80c11.027,0,20,8.973,20,20v48c0,11.027-8.973,20-20,20h-46.344
		l-22.828,22.828C435.062,288.594,434.039,289,433,289z M425,185c-6.617,0-12,5.383-12,12v48c0,6.617,5.383,12,12,12h8
		c2.211,0,4,1.791,4,4v14.344l17.172-17.172c0.75-0.75,1.766-1.172,2.828-1.172h48c6.617,0,12-5.383,12-12v-48
		c0-6.617-5.383-12-12-12H425z"/>
</g>
<g>
	<path fill="#101213" d="M433,369h-96c-2.209,0-4-1.789-4-4s1.791-4,4-4h96c2.211,0,4,1.789,4,4S435.211,369,433,369z"/>
</g>
<g>
	<path fill="#101213" d="M397,265h-60c-2.209,0-4-1.791-4-4s1.791-4,4-4h60c2.209,0,4,1.791,4,4S399.209,265,397,265z"/>
</g>
<g>
	<path fill="#101213" d="M393,249h-16c-2.209,0-4-1.791-4-4s1.791-4,4-4h16c2.209,0,4,1.791,4,4S395.209,249,393,249z"/>
</g>
<g>
	<path fill="#2E401C" d="M489,225c-1.039,0-2.082-0.441-2.84-1.16c-0.723-0.76-1.16-1.801-1.16-2.84c0-1.041,0.438-2.08,1.16-2.84
		c1.48-1.48,4.199-1.48,5.68,0c0.719,0.76,1.16,1.799,1.16,2.84c0,1.039-0.441,2.08-1.16,2.84C491.078,224.559,490.039,225,489,225z
		"/>
</g>
<g>
	<path fill="#2E401C" d="M465,225c-1.039,0-2.082-0.441-2.84-1.16c-0.723-0.76-1.16-1.801-1.16-2.84c0-1.041,0.438-2.08,1.16-2.84
		c1.52-1.48,4.199-1.48,5.68,0c0.719,0.76,1.16,1.799,1.16,2.84c0,1.039-0.441,2.08-1.16,2.84C467.078,224.559,466.039,225,465,225z
		"/>
</g>
<g>
	<path fill="#2E401C" d="M441,225c-1.039,0-2.082-0.441-2.84-1.16c-0.723-0.76-1.16-1.801-1.16-2.84c0-1.041,0.438-2.08,1.16-2.84
		c1.48-1.48,4.16-1.48,5.68,0c0.719,0.76,1.16,1.799,1.16,2.84c0,1.039-0.441,2.08-1.16,2.84C443.078,224.559,442.039,225,441,225z"
		/>
</g>
<g>
	<circle fill="#5C6976" cx="385" cy="389" r="8"/>
	<path fill="#101213" d="M385,401c-6.617,0-12-5.383-12-12s5.383-12,12-12s12,5.383,12,12S391.617,401,385,401z M385,385
		c-2.205,0-4,1.793-4,4s1.795,4,4,4s4-1.793,4-4S387.205,385,385,385z"/>
</g>
</svg>
