<?xml version="1.0" encoding="utf-8"?>
<!-- Generator: Adobe Illustrator 16.0.0, SVG Export Plug-In . SVG Version: 6.00 Build 0)  -->
<!DOCTYPE svg PUBLIC "-//W3C//DTD SVG 1.1//EN" "http://www.w3.org/Graphics/SVG/1.1/DTD/svg11.dtd">
<svg version="1.1" id="Layer_1" xmlns="http://www.w3.org/2000/svg" xmlns:xlink="http://www.w3.org/1999/xlink" x="0px" y="0px"
	 width="100px" height="100px" viewBox="0 0 100 100" enable-background="new 0 0 100 100" xml:space="preserve">
<g>
	<path fill="#FFFFFF" d="M60.731,21.627c-1.028,0-1.965,0-2.079,0c-0.112,0-0.206,0.086-0.206,0.191s0,1.126,0,2.269v0.811
		c0,1.143,0.936,1.714,2.077,1.714h0.415c1.143,0,2.077-0.572,2.077-1.714v-0.811c0-1.143,0-2.164,0-2.269s-0.094-0.191-0.206-0.191
		C62.695,21.627,61.76,21.627,60.731,21.627z"/>
	<path fill="#FFFFFF" d="M55.953,20.795h9.972c0.915,0,1.663-0.748,1.663-1.661v-1.662c0-0.915-0.748-1.662-1.663-1.662h-9.972
		c-0.914,0-1.664,0.748-1.664,1.662v1.662C54.289,20.048,55.039,20.795,55.953,20.795z"/>
	<path fill="#FFFFFF" d="M64.457,25.2c0,0.945-1.025,2.659-3.726,2.659s-3.727-1.87-3.727-2.659
		c-14.071,1.827-24.942,13.85-24.942,28.42c0,15.833,12.836,28.668,28.668,28.668c15.834,0,28.669-12.835,28.669-28.668
		C89.4,39.05,78.53,27.027,64.457,25.2z M60.731,76.471c-12.622,0-22.852-10.23-22.852-22.851c0-12.622,10.23-22.853,22.852-22.853
		c12.621,0,22.852,10.23,22.852,22.853C83.583,66.24,73.353,76.471,60.731,76.471z"/>
	<path fill="#FFFFFF" d="M61.562,51.194V35.337h-1.244v15.857c-1.308,0.286-2.285,1.448-2.285,2.84c0,1.608,1.302,2.909,2.907,2.909
		s2.909-1.301,2.909-2.909C63.849,52.643,62.868,51.48,61.562,51.194z"/>
	<path fill="#FFFFFF" d="M63.337,49.58c0,0,0.743,0.223,1.238,0.716c0.492,0.492,0.816,1.341,0.816,1.341l4.989-4.988l-2.054-2.056
		L63.337,49.58z"/>
	<path fill="#FFFFFF" d="M6.48,52.723c0,1.142,0.935,2.077,2.078,2.077h17.782c1.142,0,2.078-0.936,2.078-2.077l0,0
		c0-1.144-0.936-2.078-2.078-2.078H8.558C7.415,50.645,6.48,51.579,6.48,52.723L6.48,52.723z"/>
	<path fill="#FFFFFF" d="M18.944,31.932c0,1.143,0.935,2.078,2.078,2.078h12.851c1.143,0,2.078-0.935,2.078-2.078l0,0
		c0-1.143-0.935-2.077-2.078-2.077H21.022C19.879,29.854,18.944,30.789,18.944,31.932L18.944,31.932z"/>
	<path fill="#FFFFFF" d="M18.944,73.479c0,1.144,0.935,2.078,2.078,2.078h12.851c1.143,0,2.078-0.935,2.078-2.078l0,0
		c0-1.141-0.935-2.076-2.078-2.076H21.022C19.879,71.401,18.944,72.336,18.944,73.479L18.944,73.479z"/>
	<path fill="#FFFFFF" d="M11.051,63.3c0,1.143,0.934,2.077,2.077,2.077h15.124c1.143,0,2.077-0.935,2.077-2.077l0,0
		c0-1.143-0.935-2.077-2.077-2.077H13.128C11.985,61.223,11.051,62.157,11.051,63.3L11.051,63.3z"/>
	<path fill="#FFFFFF" d="M11.051,42.193c0,1.143,0.934,2.078,2.077,2.078h15.124c1.143,0,2.077-0.935,2.077-2.078l0,0
		c0-1.142-0.935-2.078-2.077-2.078H13.128C11.985,40.116,11.051,41.051,11.051,42.193L11.051,42.193z"/>
</g>
</svg>
