<?xml version="1.0" encoding="utf-8"?>
<!-- Generator: Adobe Illustrator 16.0.0, SVG Export Plug-In . SVG Version: 6.00 Build 0)  -->
<!DOCTYPE svg PUBLIC "-//W3C//DTD SVG 1.1//EN" "http://www.w3.org/Graphics/SVG/1.1/DTD/svg11.dtd">
<svg version="1.1" id="Layer_1" xmlns="http://www.w3.org/2000/svg" xmlns:xlink="http://www.w3.org/1999/xlink" x="0px" y="0px"
	 width="100px" height="100px" viewBox="0 0 100 100" enable-background="new 0 0 100 100" xml:space="preserve">
<circle fill="#A92E6C" cx="50.5" cy="50.5" r="45"/>
<g>
	<rect x="19.741" y="19.741" display="none" fill="none" width="61.518" height="61.518"/>
	<path fill="#4EAA58" d="M55.113,65.266c-0.51,0-0.924,0.412-0.924,0.922s0.414,0.922,0.924,0.922h0.924
		c4.076,0,7.382-3.305,7.382-7.381v-8.306c0-0.51-0.414-0.923-0.923-0.923c-0.51,0-0.923,0.413-0.923,0.923v8.306
		c0,3.058-2.479,5.537-5.536,5.537H55.113L55.113,65.266z M68.955,59.729c0,0.627-0.045,1.242-0.132,1.846h0.132
		c4.078,0,7.382-3.305,7.382-7.383c0-4.077-3.304-7.381-7.382-7.381v1.846c3.059,0,5.537,2.478,5.537,5.535
		C74.492,57.25,72.014,59.729,68.955,59.729L68.955,59.729z M68.955,50.5v7.382c2.039,0,3.691-1.651,3.691-3.69
		S70.994,50.5,68.955,50.5L68.955,50.5z M36.711,67.109c2.027,2.265,4.973,3.69,8.252,3.69h11.074
		c6.113,0,11.072-4.957,11.072-11.073V43.117H39.427v3.691h3.691c0.508,0,0.946,0.181,1.305,0.541l3.691,3.691
		c0.36,0.358,0.541,0.797,0.541,1.306v12.918c0,1.016-0.83,1.846-1.846,1.846H36.711L36.711,67.109z M37.582,46.809v-3.691H33.89
		v3.691H37.582L37.582,46.809z"/>
</g>
<path fill="#FFFFFF" d="M61.573,34.658c0,0.51-0.413,0.924-0.923,0.924s-0.924-0.414-0.924-0.924l0,0c0-3.69,1.847-3.69,1.847-7.382
	c0-3.691-1.847-3.691-1.847-7.382h0.002c0-0.509,0.412-0.922,0.922-0.922s0.923,0.414,0.923,0.922c0,3.691,1.846,3.691,1.846,7.382
	C63.419,30.968,61.573,30.968,61.573,34.658L61.573,34.658z"/>
<path fill="#FFFFFF" d="M50.499,34.658c0,0.51-0.413,0.924-0.922,0.924c-0.509,0-0.923-0.414-0.923-0.924l0,0v-0.023
	c0.008-3.667,1.845-3.676,1.845-7.358c0-3.691-1.845-3.691-1.845-7.382c0.001-0.509,0.414-0.922,0.923-0.922
	c0.509,0,0.923,0.414,0.923,0.922l0,0c0,3.691,1.846,3.691,1.846,7.382S50.5,30.968,50.499,34.658L50.499,34.658L50.499,34.658z"/>
<path fill="#FFFFFF" d="M39.426,34.658c0,0.51-0.413,0.924-0.923,0.924c-0.509,0-0.923-0.414-0.923-0.924
	c0-3.69,1.846-3.69,1.846-7.382c0-3.691-1.846-3.691-1.846-7.382l0,0c0.001-0.509,0.414-0.922,0.923-0.922
	c0.509,0,0.923,0.414,0.923,0.922l0,0c0,3.691,1.846,3.691,1.846,7.382C41.272,30.968,39.427,30.968,39.426,34.658L39.426,34.658
	L39.426,34.658z"/>
<g>
	<rect x="19.565" y="19.952" display="none" fill="none" width="61.518" height="61.519"/>
	<path d="M68.779,45.174c5.096,0,9.228,4.133,9.228,9.229c0,5.097-4.132,9.229-9.228,9.229h-0.536
		c-1.587,5.336-6.53,9.229-12.382,9.229H44.788c-4.39,0-8.267-2.19-10.602-5.537h-4.162c-1.016,0-1.845-0.829-1.845-1.846v-12.92
		c0-0.508,0.181-0.945,0.541-1.305l3.15-3.151v-5.694c0-0.51,0.413-0.923,0.923-0.923h4.614v-0.923c0-0.51,0.413-0.923,0.922-0.923
		c0.51,0,0.923,0.413,0.923,0.923v0.923h11.073h17.532c0.51,0,0.922,0.413,0.922,0.923V45.174L68.779,45.174z M54.938,65.477
		c-0.51,0-0.924,0.412-0.924,0.922s0.414,0.922,0.924,0.922h0.924c4.076,0,7.382-3.305,7.382-7.381v-8.306
		c0-0.51-0.414-0.923-0.923-0.923c-0.51,0-0.924,0.413-0.924,0.923v8.306c0,3.058-2.479,5.537-5.535,5.537H54.938L54.938,65.477z
		 M68.779,59.938c0,0.627-0.045,1.244-0.133,1.847h0.133c4.078,0,7.382-3.306,7.382-7.384c0-4.076-3.304-7.381-7.382-7.381v1.846
		c3.058,0,5.537,2.479,5.537,5.535C74.316,57.461,71.837,59.938,68.779,59.938L68.779,59.938z M68.779,50.711v7.382
		c2.039,0,3.691-1.651,3.691-3.69S70.818,50.711,68.779,50.711L68.779,50.711z M39.251,51.634c0,0.509-0.413,0.923-0.923,0.923
		c-0.509,0-0.922-0.414-0.922-0.923v-2.769h-3.691l-3.691,3.691v12.918h16.61V52.557l-3.691-3.69h-3.691L39.251,51.634
		L39.251,51.634z M36.535,67.32c2.027,2.265,4.973,3.69,8.252,3.69h11.074c6.113,0,11.072-4.956,11.072-11.073V43.328H39.251v3.691
		h3.691c0.508,0,0.946,0.182,1.305,0.541l3.691,3.691c0.36,0.358,0.541,0.797,0.541,1.306v12.918c0,1.017-0.83,1.846-1.846,1.846
		H36.535L36.535,67.32z M37.406,47.02v-3.691h-3.691v3.691H37.406L37.406,47.02z"/>
</g>
<path fill="#FFFFFF" d="M39.399,51.712c0,0.513-0.421,0.933-0.941,0.933s-0.941-0.42-0.941-0.933v-2.796h-3.765l-3.764,3.729v13.047
	h16.939V52.645l-3.765-3.729h-3.764L39.399,51.712L39.399,51.712z"/>
<g>
	<rect x="47.123" y="-16.196" display="none" fill="none" width="61.518" height="61.518"/>
	<path fill="#FFFFFF" d="M54.938,65.466c-0.51,0-0.924,0.413-0.924,0.923s0.414,0.922,0.924,0.922h0.924
		c4.076,0,7.382-3.305,7.382-7.381v-8.306c0-0.51-0.414-0.923-0.923-0.923c-0.51,0-0.924,0.412-0.924,0.923v8.306
		c0,3.057-2.479,5.536-5.535,5.536"/>
</g>
<circle fill="#5FAF4E" stroke="#FFFFFF" stroke-width="3" stroke-miterlimit="10" cx="17.885" cy="82.416" r="12.25"/>
<text transform="matrix(1 0 0 1 15.1152 86.166)" fill="#FFFFFF" font-family="'Folks-Normal'" font-size="10">3</text>
</svg>
