<?xml version="1.0" encoding="utf-8"?>
<!-- Generator: Adobe Illustrator 16.0.0, SVG Export Plug-In . SVG Version: 6.00 Build 0)  -->
<!DOCTYPE svg PUBLIC "-//W3C//DTD SVG 1.1//EN" "http://www.w3.org/Graphics/SVG/1.1/DTD/svg11.dtd">
<svg version="1.1" id="Layer_1" xmlns="http://www.w3.org/2000/svg" xmlns:xlink="http://www.w3.org/1999/xlink" x="0px" y="0px"
	 width="170px" height="170px" viewBox="0 0 170 170" enable-background="new 0 0 170 170" xml:space="preserve">
<circle fill="none" stroke="#35AA63" stroke-width="4" stroke-miterlimit="10" cx="83.5" cy="83.5" r="79"/>
<path fill="#35AA63" d="M85.977,48.323l-1.613-7.012l-1.612,7.012c-6.424,17.907-23.625,28.413-23.625,49.043
	c0,10.606,6.567,19.646,15.821,23.374c0.231,0.08,0.483,0.136,0.715,0.212c1.227,0.465,2.472,0.887,3.787,1.143
	c1.591,0.325,3.226,0.5,4.915,0.5c1.692,0,3.322-0.175,4.918-0.5c1.312-0.256,2.559-0.678,3.784-1.143
	c0.23-0.076,0.484-0.132,0.717-0.212c9.253-3.728,15.821-12.768,15.821-23.374C109.604,76.736,92.402,66.229,85.977,48.323z
	 M84.363,117.514c-1.604,0-2.897-1.294-2.897-2.897s1.294-2.895,2.897-2.895c8.421,0,15.271-6.859,15.271-15.262
	c0-1.604,1.296-2.9,2.896-2.9c1.604,0,2.899,1.296,2.899,2.9C105.431,108.07,95.982,117.514,84.363,117.514z"/>
</svg>
