<?xml version="1.0" encoding="utf-8"?>
<!-- Generator: Adobe Illustrator 16.0.0, SVG Export Plug-In . SVG Version: 6.00 Build 0)  -->
<!DOCTYPE svg PUBLIC "-//W3C//DTD SVG 1.1//EN" "http://www.w3.org/Graphics/SVG/1.1/DTD/svg11.dtd">
<svg version="1.1" id="Layer_1" xmlns="http://www.w3.org/2000/svg" xmlns:xlink="http://www.w3.org/1999/xlink" x="0px" y="0px"
	 width="100px" height="100px" viewBox="0 0 100 100" enable-background="new 0 0 100 100" xml:space="preserve">
<circle fill="#EEE9E0" cx="50.885" cy="50.5" r="45"/>
<rect x="30.584" y="43.417" fill="#E83755" width="6.917" height="6.917"/>
<rect x="30.584" y="53.792" fill="#E83755" width="6.917" height="6.916"/>
<rect x="40.959" y="43.417" fill="#E83755" width="6.916" height="6.917"/>
<rect x="40.959" y="53.792" fill="#E83755" width="6.916" height="6.916"/>
<rect x="51.334" y="43.417" fill="#E83755" width="6.917" height="6.917"/>
<path fill="#6687C5" d="M27.125,64.322V40.458h38.042v6.917h3.458V33.886c0-2.101-1.675-3.803-3.745-3.803h-1.442v1.729
	c0,1.905-1.551,3.458-3.459,3.458s-3.457-1.554-3.457-3.458v-1.729h-20.75v1.729c0,1.905-1.55,3.458-3.458,3.458
	s-3.458-1.554-3.458-3.458v-1.729h-1.44c-2.07,0-3.747,1.702-3.747,3.803v30.438c0,2.094,1.677,3.803,3.747,3.803h20.461v-3.459
	H27.414C27.257,64.666,27.125,64.504,27.125,64.322z"/>
<path fill="#4C4C4D" d="M71.355,63.833h-5.188v-5.188c0-0.955-0.772-1.729-1.729-1.729c-0.955,0-1.729,0.773-1.729,1.729v6.916
	c0,0.957,0.773,1.73,1.729,1.73h6.918c0.955,0,1.729-0.773,1.729-1.73C73.084,64.605,72.311,63.833,71.355,63.833z"/>
<path fill="#E73755" d="M80.001,63.75c0,7.639-6.194,13.834-13.833,13.834c-7.641,0-13.834-6.195-13.834-13.834
	s6.193-13.834,13.834-13.834C73.807,49.916,80.001,56.111,80.001,63.75z M76.543,63.75c0-5.721-4.654-10.375-10.375-10.375
	c-5.723,0-10.376,4.654-10.376,10.375s4.653,10.375,10.376,10.375C71.889,74.125,76.543,69.471,76.543,63.75z"/>
<path d="M30.584,31.896v-6.917c0-0.956,0.773-1.729,1.729-1.729s1.729,0.773,1.729,1.729v6.917c0,0.956-0.773,1.729-1.729,1.729
	S30.584,32.852,30.584,31.896z"/>
<path d="M59.979,33.625c0.957,0,1.729-0.773,1.729-1.729v-6.917c0-0.956-0.772-1.729-1.729-1.729c-0.955,0-1.729,0.773-1.729,1.729
	v6.917C58.251,32.852,59.023,33.625,59.979,33.625z"/>
<circle fill="#5FAF4E" stroke="#FFFFFF" stroke-width="3" stroke-miterlimit="10" cx="17.718" cy="81.917" r="12.25"/>
<text transform="matrix(1 0 0 1 14.9482 85.667)" fill="#FFFFFF" font-family="'Folks-Normal'" font-size="10">2</text>
</svg>
