<?xml version="1.0" encoding="utf-8"?>
<!-- Generator: Adobe Illustrator 16.0.0, SVG Export Plug-In . SVG Version: 6.00 Build 0)  -->
<!DOCTYPE svg PUBLIC "-//W3C//DTD SVG 1.1//EN" "http://www.w3.org/Graphics/SVG/1.1/DTD/svg11.dtd">
<svg version="1.1" id="Layer_1" xmlns="http://www.w3.org/2000/svg" xmlns:xlink="http://www.w3.org/1999/xlink" x="0px" y="0px"
	 width="200px" height="200px" viewBox="0 0 200 200" enable-background="new 0 0 200 200" xml:space="preserve">
<g>
	<circle fill="#89ADDB" cx="100" cy="100" r="81.843"/>
</g>
<g>
	<circle fill="#DAE3E6" cx="100" cy="100" r="45.468"/>
</g>
<g>
	<path fill="#8A9ED1" d="M133.103,131.152L133.103,131.152c-4.283-3.784-11.355-6.756-19.938-8.276
		c-1.261-0.224-2.174-1.311-2.118-2.589c0.06-1.393,0.059-2.869,0.051-4.405c0-3.527,4.245-7.774,4.477-12.726
		c1.41-2.93,2.218-5.845,2.218-8.098c0-1.481-0.364-2.453-1.002-3.095c0.347-1.843,0.642-3.793,1.002-5.801
		c1.453-8.071-1.364-13.888-8.452-16.405c-2.558-0.907-13.169-2.746-17.123-6.576c-1.432-1.386-0.45,6.421-1.747,7.004
		c-6.947,3.123-9.701,7.98-8.261,15.977c0.361,2.008,0.657,3.958,1.002,5.801c-0.639,0.642-1.002,1.614-1.002,3.095
		c0,2.253,0.808,5.168,2.219,8.098c0.231,4.951,4.475,8.953,4.475,12.726c-0.006,1.536-0.007,3.013,0.053,4.405
		c0.055,1.278-0.858,2.365-2.12,2.589c-8.58,1.521-15.653,4.492-19.938,8.276l0,0c8.293,8.807,20.051,14.315,33.104,14.315
		S124.812,139.959,133.103,131.152z"/>
</g>
<g>
	<path fill="#242E39" d="M100,147.287c-26.074,0-47.287-21.212-47.287-47.287c0-26.074,21.213-47.287,47.287-47.287
		c26.075,0,47.287,21.213,47.287,47.287C147.287,126.075,126.075,147.287,100,147.287z M100,56.351
		c-24.068,0-43.649,19.582-43.649,43.649c0,24.068,19.582,43.649,43.649,43.649c24.068,0,43.649-19.581,43.649-43.649
		C143.649,75.932,124.068,56.351,100,56.351z"/>
</g>
<g>
	<path fill="#242E39" d="M66.897,132.972c-0.503,0-1.004-0.208-1.364-0.614c-0.666-0.754-0.593-1.902,0.159-2.568
		c4.581-4.045,11.976-7.137,20.826-8.703c0.374-0.067,0.635-0.369,0.62-0.721c-0.061-1.42-0.061-2.924-0.054-4.49
		c0-1.349-0.874-3.021-1.798-4.794c-1.138-2.178-2.42-4.634-2.65-7.46c-1.45-3.1-2.246-6.129-2.246-8.563
		c0-1.456,0.292-2.633,0.886-3.57c-0.136-0.763-0.267-1.543-0.399-2.335c-0.146-0.875-0.296-1.766-0.458-2.669
		c-1.532-8.511,1.27-14.159,8.813-17.731c0.129-0.624,0.193-1.869,0.233-2.664c0.128-2.506,0.213-4.162,1.706-4.751
		c0.784-0.307,1.647-0.108,2.312,0.536c2.687,2.604,9.659,4.373,13.404,5.324c1.334,0.338,2.388,0.605,3.061,0.844
		c7.852,2.789,11.272,9.338,9.635,18.441c-0.159,0.89-0.307,1.769-0.45,2.632c-0.136,0.805-0.267,1.598-0.405,2.373
		c0.593,0.937,0.885,2.115,0.885,3.569c0,2.433-0.796,5.462-2.245,8.563c-0.231,2.867-1.54,5.403-2.7,7.651
		c-0.898,1.746-1.749,3.395-1.749,4.609c0.007,1.558,0.009,3.063-0.054,4.483c-0.014,0.352,0.245,0.653,0.62,0.721
		c8.851,1.566,16.246,4.658,20.825,8.705c0.753,0.664,0.823,1.812,0.157,2.566c-0.662,0.755-1.812,0.823-2.566,0.157
		c-4.085-3.606-10.85-6.396-19.052-7.849c-2.156-0.382-3.71-2.298-3.618-4.458c0.059-1.365,0.057-2.812,0.05-4.317
		c0-2.106,1.046-4.137,2.154-6.283c1.091-2.117,2.221-4.306,2.323-6.536c0.013-0.244,0.073-0.483,0.178-0.704
		c1.297-2.691,2.039-5.355,2.039-7.309c0-0.887-0.16-1.498-0.475-1.813c-0.421-0.424-0.607-1.029-0.495-1.617
		c0.188-1.008,0.362-2.047,0.54-3.111c0.147-0.877,0.296-1.771,0.458-2.677c1.323-7.351-1.123-12.186-7.271-14.369
		c-0.514-0.183-1.545-0.444-2.738-0.747c-3.803-0.965-9.2-2.335-12.887-4.602c-0.003,0.053-0.005,0.103-0.008,0.153
		c-0.138,2.702-0.247,4.834-1.882,5.569c-6.313,2.838-8.472,7.025-7.216,13.996c0.166,0.918,0.316,1.824,0.465,2.714
		c0.176,1.05,0.348,2.079,0.535,3.075c0.11,0.588-0.076,1.192-0.498,1.617c-0.314,0.316-0.473,0.926-0.473,1.812
		c0,1.955,0.743,4.619,2.039,7.309c0.107,0.221,0.167,0.46,0.179,0.704c0.102,2.185,1.202,4.291,2.265,6.326
		c1.137,2.179,2.212,4.236,2.212,6.484c-0.006,1.514-0.008,2.961,0.051,4.326c0.093,2.16-1.463,4.076-3.619,4.458
		c-8.2,1.453-14.966,4.242-19.052,7.851C67.754,132.82,67.324,132.972,66.897,132.972z"/>
</g>
</svg>
