<?xml version="1.0" encoding="utf-8"?>
<!-- Generator: Adobe Illustrator 16.0.0, SVG Export Plug-In . SVG Version: 6.00 Build 0)  -->
<!DOCTYPE svg PUBLIC "-//W3C//DTD SVG 1.1//EN" "http://www.w3.org/Graphics/SVG/1.1/DTD/svg11.dtd">
<svg version="1.1" id="Layer_1" xmlns="http://www.w3.org/2000/svg" xmlns:xlink="http://www.w3.org/1999/xlink" x="0px" y="0px"
	 width="100px" height="100px" viewBox="0 0 100 100" enable-background="new 0 0 100 100" xml:space="preserve">
<path fill="#FFFFFF" d="M67.39,62.852L59.66,78.026c-0.19,0.285-0.382,0.477-0.764,0.571c-2.673,0.572-4.867,2.195-6.203,4.485
	c-9.257,0-19.087-0.094-19.087-0.094s0.477-3.819,0-8.687c-0.477-4.771-2.767-10.115-2.767-10.115l-6.299,3.245
	c0,0,1.718,5.822,1.623,10.212c-0.095,4.389-2.195,10.878-2.195,10.878s18.8,1.718,24.621,1.528c0.764,0,1.718-0.096,2.863-0.096
	c0.096,0.477,0.191,0.953,0.382,1.431c-1.051,0-2.099,0-3.149,0c-13.169,0-25.194-1.05-34.165-2.673
	c-0.381-2.576-0.572-5.438-0.572-8.588c0-2.099,0.572-4.199,1.622-6.203c3.245-6.107,11.166-10.975,21.186-13.17
	c2.195,4.199,6.681,7.062,11.929,7.062c5.249,0,9.734-2.863,11.833-6.967C62.999,61.325,65.289,61.993,67.39,62.852z M58.323,89.669
	v1.621c1.813-0.096,3.628-0.191,5.44-0.286v-1.718l0,0C61.951,89.382,60.137,89.478,58.323,89.669z M81.705,73.922
	c-1.337-2.576-3.531-4.963-6.395-6.968l-0.954,1.91l0,0c-0.572,1.527-1.814,5.153-2.29,8.302c-0.668,4.009,0,11.452,0,11.452
	s-0.477,0.095-1.433,0.095c0,0.573-0.19,1.242-0.286,1.814c4.58-0.477,8.78-0.954,12.502-1.719c0.287-2.576,0.478-5.438,0.478-8.684
	C83.327,78.026,82.754,75.926,81.705,73.922z M53.265,90.24c0.096,0.383,0.287,0.858,0.383,1.146l0,0
	C53.456,91.004,53.36,90.623,53.265,90.24z M68.631,90.623C68.727,90.623,68.727,90.623,68.631,90.623
	c0.19-0.383,0.286-0.859,0.382-1.241C68.917,89.764,68.821,90.24,68.631,90.623z M69.108,88.809c0,0.191,0,0.383-0.096,0.573
	C69.013,89.191,69.108,89,69.108,88.809L69.108,88.809C69.108,88.713,69.108,88.809,69.108,88.809z M40.096,34.509
	c-1.24,0-2.29,1.049-2.29,2.29s1.05,2.291,2.29,2.291c1.241,0,2.291-1.05,2.291-2.291C42.387,35.463,41.432,34.509,40.096,34.509z
	 M56.511,34.509c-1.241,0-2.29,1.049-2.29,2.29s1.049,2.291,2.29,2.291c1.24,0,2.29-1.05,2.29-2.291
	C58.705,35.463,57.751,34.509,56.511,34.509z M40.096,34.509c-1.24,0-2.29,1.049-2.29,2.29s1.05,2.291,2.29,2.291
	c1.241,0,2.291-1.05,2.291-2.291C42.387,35.463,41.432,34.509,40.096,34.509z M56.511,34.509c-1.241,0-2.29,1.049-2.29,2.29
	s1.049,2.291,2.29,2.291c1.24,0,2.29-1.05,2.29-2.291C58.705,35.463,57.751,34.509,56.511,34.509z M71.971,34.89
	c-0.381,1.909-1.432,3.626-2.958,5.058c-0.669,0.573-1.433,1.05-2.194,1.431C64.337,51.974,56.701,59.32,48.112,59.32
	c-8.494,0-16.128-7.253-18.705-17.75c-0.859-0.381-1.718-0.954-2.386-1.622c-1.623-1.432-2.672-3.245-3.054-5.058
	c-0.381-1.909,0.096-3.722,1.241-5.058c0.955-1.05,2.291-1.718,3.817-1.813c0.191-0.859,0.382-1.623,0.573-2.481v-0.096
	c-0.096-3.34-0.191-8.494-0.191-11.929c0-5.44,9.734-11.452,19.563-11.452c9.734,0,17.847,8.875,17.847,11.261
	c0,1.623-0.096,8.017-0.191,12.12v0.096c0.191,0.858,0.477,1.622,0.572,2.481c1.432,0.19,2.767,0.763,3.626,1.813
	C71.875,31.168,72.352,32.981,71.971,34.89z M39.619,11.127c0,0.096,0,0.191,0,0.287c0.096,0.573,0.191,0.954,0.191,1.431
	c0.095,0.287,0.095,0.573,0.191,0.955c0.286,1.527,1.718,2.672,3.34,2.481c4.295-0.477,6.489-0.477,10.784,0
	c1.621,0.191,3.054-0.954,3.34-2.481v-0.095c0.096-0.668,0.19-1.145,0.286-1.718c0-0.191,0.096-0.287,0.096-0.478
	c0.285-1.527-1.05-3.053-2.863-3.245c-4.962-0.477-7.443-0.477-12.406,0C40.764,8.36,39.523,9.696,39.619,11.127z M69.585,30.882
	c-0.764-0.764-1.909-1.241-3.149-1.241h-0.286l-1.718,5.249l-0.572-6.68l-3.246,3.245c0,0-3.912-6.489-11.833-6.489
	c-7.92,0-12.788,6.394-12.788,6.394l-3.817-3.149l-1.813,6.203l-0.573-4.771h-0.287c-1.336,0-2.386,0.477-3.149,1.241
	c-0.858,0.954-1.145,2.195-0.858,3.722c0.286,1.527,1.145,3.054,2.481,4.199c0.668,0.668,1.526,1.145,2.386,1.431l0.381,0.191
	l0.096,0.381c2.29,9.925,9.352,16.892,17.273,16.892s14.982-6.967,17.272-17.082l0.096-0.382l0.382-0.19
	c0.765-0.382,1.432-0.859,2.1-1.336c1.336-1.145,2.194-2.672,2.481-4.199C70.634,33.077,70.348,31.836,69.585,30.882z
	 M69.108,88.809L69.108,88.809L69.108,88.809C69.108,88.713,69.108,88.809,69.108,88.809z M79.891,46.724v5.821
	c0,1.337-1.05,2.387-2.386,2.387h-3.816c-1.337,0-2.386-1.05-2.386-2.387v-5.821c-2.29,1.432-3.818,4.008-3.818,6.871
	c0,2.195,0.859,4.198,2.291,5.631c0.477,0.478,0.572,1.336,0.286,2.005l-1.145,2.194l-0.859,1.717l-0.764,1.527l0,0l-6.107,11.929
	c-0.096,0.096-0.096,0.191-0.191,0.286c-0.095,0.19-0.19,0.286-0.382,0.478c-0.381,0.382-0.763,0.573-1.239,0.669
	c-1.909,0.382-3.532,1.43-4.676,2.959c-1.051,1.335-1.719,3.147-1.719,4.961c0,0.191,0,0.287,0,0.477c0,0.096,0,0.191,0,0.286
	c0,0.191,0.096,0.479,0.096,0.669c0,0.096,0.095,0.191,0.095,0.287c0,0.095,0,0.095,0,0.19s0,0.191,0.095,0.287
	c0.096,0.381,0.287,0.857,0.478,1.144c0.096,0.191,0.191,0.382,0.287,0.573s0.191,0.286,0.286,0.478
	c0.096,0.191,0.191,0.285,0.287,0.477c0,0,0,0.096,0.096,0.096c0.19,0.285,0.381,0.477,0.667,0.763l0.096,0.096
	c0.189,0.191,0.477,0.382,0.667,0.573c0,0,0,0,0.096,0l0,0c0.096,0.096,0.191,0.191,0.287,0.191c0.096,0.095,0.286,0.19,0.382,0.286
	v-5.631c0-1.337,1.049-2.387,2.386-2.387h3.816c0.191,0,0.286,0,0.478,0.096l0,0c0.191,0,0.287,0.096,0.382,0.096
	c0.096,0,0.191,0.096,0.287,0.096s0.096,0.096,0.19,0.096c0.095,0.096,0.286,0.19,0.382,0.286c0.095,0.096,0.19,0.191,0.285,0.287
	c0.096,0.094,0.096,0.189,0.19,0.285l0.096,0.096c0.096,0.096,0.096,0.285,0.191,0.381c0,0.19,0.096,0.286,0.096,0.478
	c0,0.096,0,0.096,0,0.191v5.631c0.382-0.286,0.764-0.478,1.146-0.859c0.189-0.191,0.381-0.287,0.476-0.478
	c0.19-0.191,0.286-0.287,0.477-0.477c0,0,0,0,0.096-0.096c0.096-0.191,0.287-0.381,0.382-0.477c0.096-0.191,0.191-0.287,0.287-0.478
	c0-0.096,0.096-0.096,0.096-0.191c0,0,0-0.096,0.096-0.096c0.095-0.19,0.19-0.286,0.19-0.478c0.096-0.19,0.191-0.477,0.287-0.667
	c0.189-0.381,0.285-0.858,0.381-1.241c0-0.19,0.095-0.382,0.095-0.573v-0.095l0,0c0-0.096,0-0.096,0-0.191c0-0.189,0-0.381,0-0.572
	c0-2.099-0.763-4.008-2.1-5.438c-0.477-0.573-0.668-1.432-0.286-2.1l6.586-12.979l0.667-1.431l1.814-3.532
	c0.285-0.477,0.762-0.857,1.335-1.049c3.722-0.764,6.584-4.008,6.584-7.921C83.708,50.731,82.182,48.155,79.891,46.724z
	 M53.647,91.386c-0.191-0.382-0.287-0.763-0.478-1.146C53.36,90.623,53.456,91.004,53.647,91.386
	c0.095,0.191,0.19,0.382,0.286,0.573C53.838,91.768,53.742,91.577,53.647,91.386z M68.439,91.29
	c0.096-0.191,0.191-0.478,0.287-0.667c0.095-0.383,0.286-0.859,0.286-1.241c-0.096,0.478-0.191,0.858-0.382,1.241
	C68.631,90.812,68.535,91.099,68.439,91.29z M69.108,88.809c0,0.191,0,0.383-0.096,0.573C69.013,89.191,69.108,89,69.108,88.809
	L69.108,88.809C69.108,88.713,69.108,88.809,69.108,88.809z"/>
</svg>
