<?xml version="1.0" encoding="utf-8"?>
<!-- Generator: Adobe Illustrator 16.0.0, SVG Export Plug-In . SVG Version: 6.00 Build 0)  -->
<!DOCTYPE svg PUBLIC "-//W3C//DTD SVG 1.1//EN" "http://www.w3.org/Graphics/SVG/1.1/DTD/svg11.dtd">
<svg version="1.1" id="Layer_1" xmlns="http://www.w3.org/2000/svg" xmlns:xlink="http://www.w3.org/1999/xlink" x="0px" y="0px"
	 width="200px" height="200px" viewBox="0 0 200 200" enable-background="new 0 0 200 200" xml:space="preserve">
<g>
	<circle fill="#8BC649" cx="100" cy="100" r="93.684"/>
</g>
<g>
	<g>
		<path fill="#EFDCD2" d="M43.79,102.082c0-4.601,3.727-8.328,8.328-8.328c0.229,0,0.458,0,0.708,0.021h0.021
			C56.781,71.291,76.392,54.199,100,54.199c23.567,0,43.138,17.009,47.135,39.41c0,0.062,0.021,0.104,0.021,0.167h0.021
			c0.248-0.021,0.479-0.021,0.707-0.021c4.601,0,8.327,3.727,8.327,8.328c0,4.601-3.727,8.327-8.327,8.327
			c-0.25,0-0.479,0-0.728-0.021l-0.021,0.167c-3.997,22.4-23.567,39.409-47.135,39.409c-23.608,0-43.219-17.069-47.154-39.556
			h-0.729C47.516,110.409,43.79,106.683,43.79,102.082z"/>
	</g>
</g>
<g>
	<g>
		<path fill="#393229" d="M100.593,56.189c-1.15,0-2.082-0.932-2.082-2.082c0-7.079,5.761-12.839,12.84-12.839
			c3.292,0,6.423,1.245,8.815,3.505c0.836,0.79,0.874,2.107,0.083,2.943c-0.788,0.837-2.107,0.873-2.941,0.084
			c-1.616-1.528-3.732-2.369-5.957-2.369c-4.784,0-8.675,3.892-8.675,8.675C102.676,55.257,101.742,56.189,100.593,56.189z"/>
	</g>
	<g>
		<path fill="#393229" d="M100.593,56.189c-1.15,0-2.082-0.932-2.082-2.082c0-3.465-2.819-6.285-6.284-6.285
			c-1.611,0-3.144,0.61-4.315,1.716c-0.834,0.79-2.155,0.754-2.943-0.083c-0.79-0.835-0.753-2.154,0.083-2.943
			c1.948-1.841,4.496-2.854,7.176-2.854c5.761,0,10.447,4.688,10.447,10.449C102.674,55.257,101.742,56.189,100.593,56.189z"/>
	</g>
	<g>
		<path fill="#393229" d="M52.275,100.261c-0.056,0-0.113-0.002-0.169-0.007c-1.146-0.092-2-1.096-1.907-2.242
			C52.274,72.277,74.15,52.117,100,52.117c24.248,0,44.935,17.299,49.187,41.134c0.258,1.443,0.453,2.912,0.581,4.364
			c0.102,1.146-0.746,2.155-1.891,2.256c-1.161,0.094-2.155-0.745-2.257-1.892c-0.118-1.33-0.297-2.673-0.532-3.995
			C141.19,72.137,122.228,56.281,100,56.281c-23.695,0-43.748,18.478-45.652,42.066C54.261,99.436,53.35,100.261,52.275,100.261z"/>
	</g>
	<g>
		<path fill="#393229" d="M100,152.047c-24.321,0-45.018-17.36-49.211-41.277c-0.199-1.133,0.558-2.212,1.69-2.411
			c1.141-0.191,2.212,0.559,2.41,1.691c3.845,21.922,22.817,37.833,45.111,37.833c22.228,0,41.19-15.855,45.088-37.701
			c0.201-1.133,1.28-1.895,2.415-1.684c1.132,0.201,1.885,1.283,1.684,2.415C144.935,134.747,124.248,152.047,100,152.047z"/>
	</g>
	<g>
		<path fill="#393229" d="M100,132.062c-9.179,0-17.329-5.521-20.761-14.068c-0.428-1.067,0.089-2.281,1.157-2.709
			c1.067-0.425,2.278,0.09,2.708,1.155c2.794,6.961,9.426,11.458,16.896,11.458c7.468,0,14.1-4.497,16.896-11.458
			c0.428-1.065,1.644-1.58,2.708-1.155c1.067,0.43,1.584,1.642,1.155,2.709C117.326,126.54,109.178,132.062,100,132.062z"/>
	</g>
	<g>
		<path fill="#393229" d="M85.427,97.918c-1.149,0-2.082-0.932-2.082-2.082c0-3.444-2.802-6.246-6.246-6.246
			c-3.444,0-6.246,2.801-6.246,6.246c0,1.149-0.932,2.082-2.082,2.082s-2.082-0.932-2.082-2.082c0-5.74,4.67-10.41,10.41-10.41
			c5.739,0,10.409,4.67,10.409,10.41C87.509,96.986,86.577,97.918,85.427,97.918z"/>
	</g>
	<g>
		<path fill="#393229" d="M131.229,97.918c-1.151,0-2.082-0.932-2.082-2.082c0-3.444-2.802-6.246-6.246-6.246
			s-6.245,2.801-6.245,6.246c0,1.149-0.932,2.082-2.082,2.082c-1.151,0-2.082-0.932-2.082-2.082c0-5.74,4.67-10.41,10.409-10.41
			s10.409,4.67,10.409,10.41C133.31,96.986,132.379,97.918,131.229,97.918z"/>
	</g>
	<g>
		<path fill="#393229" d="M52.117,112.491c-5.74,0-10.41-4.67-10.41-10.409c0-5.74,4.67-10.41,10.41-10.41
			c0.293,0,0.585,0.012,0.873,0.037c1.146,0.097,1.997,1.103,1.9,2.25c-0.097,1.145-1.077,1.999-2.25,1.9
			c-0.172-0.014-0.348-0.022-0.523-0.022c-3.444,0-6.246,2.801-6.246,6.246s2.801,6.245,6.246,6.245
			c0.183,0,0.364-0.008,0.542-0.022c1.151-0.119,2.153,0.751,2.253,1.896c0.098,1.146-0.751,2.155-1.897,2.252
			C52.72,112.479,52.42,112.491,52.117,112.491z"/>
	</g>
	<g>
		<path fill="#393229" d="M147.883,112.491c-0.305,0-0.604-0.013-0.898-0.039c-1.145-0.097-1.994-1.105-1.895-2.252
			c0.098-1.145,1.069-2.017,2.252-1.896c0.178,0.015,0.358,0.022,0.541,0.022c3.444,0,6.246-2.801,6.246-6.245
			c0-3.621-3.176-6.505-6.772-6.224c-1.171,0.096-2.153-0.757-2.247-1.902c-0.095-1.146,0.755-2.152,1.901-2.248
			c0.289-0.024,0.577-0.037,0.872-0.037c5.739,0,10.409,4.67,10.409,10.41C158.292,107.821,153.622,112.491,147.883,112.491z"/>
	</g>
</g>
</svg>
